<?xml version="1.0" standalone="no"?>
<!DOCTYPE svg PUBLIC "-//W3C//DTD SVG 20010904//EN"
 "http://www.w3.org/TR/2001/REC-SVG-20010904/DTD/svg10.dtd">
<svg version="1.0" xmlns="http://www.w3.org/2000/svg"
 width="349.000000pt" height="101.000000pt" viewBox="0 0 349.000000 101.000000"
 preserveAspectRatio="xMidYMid meet">

<g transform="translate(0.000000,101.000000) scale(0.100000,-0.100000)"
fill="#000000" stroke="none">
<path d="M20 500 l0 -480 1735 0 1735 0 0 480 0 480 -1735 0 -1735 0 0 -480z
m3450 0 l0 -450 -1715 0 -1715 0 0 450 0 450 1715 0 1715 0 0 -450z"/>
<path d="M110 500 l0 -390 410 0 410 0 0 390 0 390 -410 0 -410 0 0 -390z
m148 65 c26 -41 49 -75 52 -75 3 0 27 34 54 75 69 107 76 102 76 -55 0 -107
-3 -130 -15 -130 -11 0 -15 20 -17 97 l-3 97 -40 -62 c-22 -34 -47 -62 -55
-62 -8 0 -33 28 -55 62 l-40 62 -3 -97 c-2 -77 -6 -97 -17 -97 -12 0 -15 23
-15 130 0 159 9 165 78 55z m544 58 c28 -25 23 -68 -12 -95 l-30 -24 29 -28
29 -28 7 31 c4 17 13 31 21 31 17 0 18 -18 4 -56 -8 -21 -7 -31 5 -44 8 -9 15
-20 15 -23 0 -11 -38 -8 -45 3 -4 7 -12 7 -25 0 -10 -5 -39 -10 -64 -10 -80 0
-113 64 -61 116 23 23 24 27 10 47 -34 49 -6 97 58 97 24 0 48 -7 59 -17z"/>
<path d="M718 609 c-23 -13 -23 -31 1 -60 18 -22 19 -22 45 -6 31 21 34 52 7
67 -24 12 -31 12 -53 -1z"/>
<path d="M696 474 c-33 -32 -11 -64 44 -64 52 0 55 9 18 47 -36 38 -41 39 -62
17z"/>
<path d="M1310 637 c-71 -36 -61 -114 19 -143 61 -23 77 -37 58 -53 -15 -12
-47 -5 -47 10 0 5 -18 9 -41 9 -37 0 -40 -2 -34 -22 9 -31 42 -58 74 -60 86
-4 131 22 131 77 0 40 -31 69 -87 84 -26 7 -43 18 -43 27 0 22 28 28 49 10 15
-14 81 -24 81 -12 0 26 -26 60 -55 71 -42 18 -72 19 -105 2z"/>
<path d="M1550 637 c-71 -36 -61 -114 19 -143 61 -23 77 -37 58 -53 -15 -12
-47 -5 -47 10 0 5 -18 9 -41 9 -37 0 -40 -2 -34 -22 9 -31 42 -58 74 -60 86
-4 131 22 131 77 0 40 -31 69 -87 84 -26 7 -43 18 -43 27 0 22 28 28 49 10 15
-14 81 -24 81 -12 0 26 -26 60 -55 71 -42 18 -72 19 -105 2z"/>
<path d="M1815 631 c-54 -24 -80 -72 -73 -136 14 -118 162 -161 246 -71 59 65
39 170 -41 207 -52 23 -81 23 -132 0z m106 -69 c25 -21 30 -71 9 -96 -16 -21
-74 -20 -95 0 -25 25 -16 85 15 101 34 17 44 16 71 -5z"/>
<path d="M2124 631 c-86 -39 -99 -158 -26 -224 50 -45 153 -37 197 15 14 16
25 36 25 44 0 19 -67 19 -86 -1 -20 -20 -68 -19 -88 1 -19 19 -21 64 -3 87 21
28 62 32 86 8 24 -24 91 -30 91 -7 0 23 -42 68 -76 82 -44 18 -71 17 -120 -5z"/>
<path d="M3310 643 c-31 -11 -60 -47 -60 -74 0 -38 28 -67 80 -82 28 -8 46
-19 48 -30 5 -24 -25 -33 -47 -13 -22 20 -81 22 -81 2 0 -26 35 -57 73 -66 74
-16 137 21 137 81 0 33 -25 56 -86 78 -28 10 -49 23 -49 31 0 21 44 25 51 6 4
-11 19 -16 45 -16 38 0 38 0 28 29 -16 45 -88 73 -139 54z"/>
<path d="M1066 632 c-6 -10 -96 -242 -96 -248 0 -2 18 -4 39 -4 31 0 41 4 46
20 5 16 15 20 52 20 36 0 46 -4 50 -20 4 -16 14 -20 44 -20 22 0 39 3 39 7 0
4 -21 62 -47 130 l-48 123 -37 0 c-20 0 -39 -4 -42 -8z m64 -149 c0 -7 -12
-13 -26 -13 -20 0 -25 4 -20 16 3 9 9 28 13 42 l6 27 13 -30 c7 -16 13 -36 14
-42z"/>
<path d="M2370 510 l0 -130 35 0 35 0 0 130 0 130 -35 0 -35 0 0 -130z"/>
<path d="M2523 513 l-50 -128 36 -3 c27 -3 39 1 50 17 19 30 96 30 104 1 4
-16 14 -20 46 -20 l41 0 -26 68 c-14 37 -36 94 -49 127 -22 58 -24 60 -62 63
l-40 3 -50 -128z m106 -4 c14 -41 15 -39 -14 -39 -26 0 -29 9 -19 48 9 31 20
28 33 -9z"/>
<path d="M2760 605 c0 -34 1 -35 40 -35 l40 0 0 -95 0 -95 40 0 40 0 0 94 0
95 38 3 c34 3 37 6 40 36 l3 32 -120 0 -121 0 0 -35z"/>
<path d="M3040 510 l0 -130 90 0 90 0 0 30 c0 30 -1 30 -55 30 -48 0 -55 2
-55 20 0 17 7 20 45 20 43 0 45 1 45 30 0 29 -2 30 -45 30 -38 0 -45 3 -45 20
0 17 7 20 50 20 49 0 50 1 50 30 l0 30 -85 0 -85 0 0 -130z"/>
</g>
</svg>
